<svg width="294" height="350" viewBox="0 0 294 350" fill="none" xmlns="http://www.w3.org/2000/svg">
<path d="M0 75L147 0L294 75V275L147 350L0 275V75Z" fill="#439EDB"/>
<g filter="url(#filter0_d_1_56)">
<path fill-rule="evenodd" clip-rule="evenodd" d="M141.366 64.4534L147.059 54L152.753 64.4534L220.784 189.36C235.438 216.263 230.417 249.629 208.495 271.029C174.328 304.381 119.791 304.381 85.6241 271.029C63.7021 249.629 58.6812 216.263 73.3344 189.36L141.366 64.4534ZM82.1163 194.143L147.059 74.9068L212.003 194.143C215.272 200.146 217.394 206.525 218.412 213H185.559V197C185.559 194.239 183.321 192 180.559 192H175.559C172.798 192 170.559 194.239 170.559 197V213V228V244C170.559 246.761 172.798 249 175.559 249H180.559C183.321 249 185.559 246.761 185.559 244V228H218.816C217.461 241.28 211.57 254.052 201.51 263.873C171.228 293.433 122.891 293.433 92.6094 263.873C82.5492 254.052 76.6577 241.28 75.3027 228H108.559V244C108.559 246.761 110.798 249 113.559 249H118.559C121.321 249 123.559 246.761 123.559 244V228V213V197C123.559 194.239 121.321 192 118.559 192H113.559C110.798 192 108.559 194.239 108.559 197V213H75.7073C76.7248 206.525 78.847 200.146 82.1163 194.143ZM139.559 244C139.559 246.761 141.798 249 144.559 249H149.559C152.321 249 154.559 246.761 154.559 244V162C154.559 159.239 152.321 157 149.559 157H144.559C141.798 157 139.559 159.239 139.559 162V244Z" fill="#BB0A21"/>
</g>
<defs>
<filter id="filter0_d_1_56" x="61" y="54" width="172.119" height="250.043" filterUnits="userSpaceOnUse" color-interpolation-filters="sRGB">
<feFlood flood-opacity="0" result="BackgroundImageFix"/>
<feColorMatrix in="SourceAlpha" type="matrix" values="0 0 0 0 0 0 0 0 0 0 0 0 0 0 0 0 0 0 127 0" result="hardAlpha"/>
<feOffset dy="4"/>
<feGaussianBlur stdDeviation="2"/>
<feComposite in2="hardAlpha" operator="out"/>
<feColorMatrix type="matrix" values="0 0 0 0 0 0 0 0 0 0 0 0 0 0 0 0 0 0 0.25 0"/>
<feBlend mode="normal" in2="BackgroundImageFix" result="effect1_dropShadow_1_56"/>
<feBlend mode="normal" in="SourceGraphic" in2="effect1_dropShadow_1_56" result="shape"/>
</filter>
</defs>
</svg>
